<svg version="1.2" xmlns="http://www.w3.org/2000/svg" viewBox="0 0 2807 1604" width="2807" height="1604">
	<title>fundo-calc-desconto</title>
	<defs>
		<linearGradient id="g1" x1="454.2" y1="1293.9" x2="-169.1" y2="353.3" gradientUnits="userSpaceOnUse">
			<stop offset="0" stop-color="#0c1a3b"/>
			<stop offset="1" stop-color="#000000"/>
		</linearGradient>
		<linearGradient id="g2" x1="330.2" y1="1023" x2="-125" y2="76.1" gradientUnits="userSpaceOnUse">
			<stop offset="0" stop-color="#0c1a3b"/>
			<stop offset="1" stop-color="#000000"/>
		</linearGradient>
		<linearGradient id="g3" x1="2417.3" y1="300.1" x2="3040.6" y2="1240.7" gradientUnits="userSpaceOnUse">
			<stop offset="0" stop-color="#0c1a3b"/>
			<stop offset="1" stop-color="#000000"/>
		</linearGradient>
		<linearGradient id="g4" x1="2541.3" y1="571" x2="2996.5" y2="1517.9" gradientUnits="userSpaceOnUse">
			<stop offset="0" stop-color="#0c1a3b"/>
			<stop offset="1" stop-color="#000000"/>
		</linearGradient>
	</defs>
	<style>
		.s0 { fill: #000c2e } 
		.s1 { mix-blend-mode: screen;fill: url(#g1) } 
		.s2 { mix-blend-mode: screen;fill: url(#g2) } 
		.s3 { mix-blend-mode: screen;fill: url(#g3) } 
		.s4 { mix-blend-mode: screen;fill: url(#g4) } 
		.s5 { fill: #ffffff } 
		.s6 { fill: #3377ab } 
		.s7 { fill: #ffe6aa } 
	</style>
	<g id="_Artboards_">
	</g>
	<g id="Layer 1">
		<g id="&lt;Group&gt;">
			<path id="&lt;Path&gt;" class="s0" d="m2806.2 1603.6h-2806.2v-1603.6h2806.2z"/>
			<g id="&lt;Clip Group&gt;">
				<g id="&lt;Group&gt;">
					<path id="&lt;Path&gt;" class="s1" d="m1362.6-73.8q-590.7-29-1181.4-58c-70.2-3.4-144.9-5.9-205.7 29.5-73.7 42.7-108.1 129.6-130.2 211.9-56.8 211.4-66.2 435.5-27.1 651 5.1 28.5 11.5 57.6 27.4 81.8 89.7 135.5 156.3-60.8 191.6-113.9 70.4-106.1 163.9-202.2 257.2-288.2 189.6-174.9 412.8-313.4 653.8-405.5 119-45.5 284.9-114.9 414.4-108.6z"/>
					<path id="&lt;Path&gt;" class="s2" d="m1362.6-56.4q-581.2-109.5-1162.4-219c-69.1-13-142.8-25.6-207.9 1.1-78.7 32.2-124.8 113.7-157.9 192.1-85.2 201.7-125.1 422.4-115.9 641.2 1.3 28.9 3.5 58.7 16.1 84.8 70.3 146.4 163-38.9 205.3-86.7 84.3-95.4 190-177.9 294.1-250.3 211.8-147.3 451.9-254 703.2-312.3 124.1-28.8 298-74.9 425.4-50.9z"/>
				</g>
				<g id="&lt;Group&gt;">
					<path id="&lt;Path&gt;" class="s3" d="m1508.9 1667.8q590.7 29 1181.4 58c70.2 3.4 145 5.8 205.8-29.5 73.6-42.7 108-129.7 130.1-211.9 56.8-211.4 66.2-435.5 27.1-651-5.1-28.5-11.4-57.6-27.4-81.8-89.7-135.5-156.3 60.8-191.6 113.9-70.4 106.1-163.9 202.2-257.1 288.2-189.7 174.9-412.9 313.4-653.9 405.5-119 45.5-284.9 114.9-414.4 108.6z"/>
					<path id="&lt;Path&gt;" class="s4" d="m1508.9 1650.4q581.2 109.5 1162.4 219c69.1 13 142.8 25.6 207.9-1.1 78.8-32.3 124.8-113.7 157.9-192.1 85.2-201.7 125.1-422.4 115.9-641.2-1.2-28.9-3.5-58.7-16-84.8-70.3-146.4-163.1 38.9-205.4 86.7-84.2 95.4-190 177.9-294.1 250.3-211.8 147.3-451.8 254-703.2 312.3-124.1 28.8-298 74.9-425.4 50.9z"/>
				</g>
				<g id="&lt;Group&gt;">
					<g id="&lt;Group&gt;">
						<g id="&lt;Group&gt;">
							<path id="&lt;Path&gt;" class="s5" d="m296.1 1123c-0.6 0-1.2-0.3-1.6-0.7l-25.3-30.2-25.4 30.2c-0.4 0.4-1 0.7-1.6 0.7-0.6 0-1.2-0.3-1.6-0.7l-25.3-30.2-25.3 30.2c-0.8 0.9-2.4 0.9-3.2 0l-27-32.1c-0.7-0.9-0.6-2.2 0.3-3 0.9-0.7 2.2-0.6 2.9 0.3l25.4 30.2 25.3-30.2c0.8-0.9 2.4-0.9 3.2 0l25.3 30.2 25.4-30.2c0.8-0.9 2.4-0.9 3.2 0l25.3 30.2 25.4-30.2c0.8-0.9 2.1-1 3-0.3 0.8 0.8 1 2.1 0.2 3l-27 32.1c-0.4 0.4-0.9 0.7-1.6 0.7z"/>
						</g>
					</g>
				</g>
				<g id="&lt;Group&gt;">
					<g id="&lt;Group&gt;">
						<g id="&lt;Group&gt;">
							<path id="&lt;Path&gt;" class="s5" d="m2550.3 346c-0.6 0-1.2-0.3-1.6-0.8l-25.3-30.2-25.4 30.2c-0.8 1-2.4 1-3.2 0l-25.3-30.2-25.3 30.2c-0.8 1-2.5 1-3.2 0l-25.4-30.2-25.4 30.2c-0.7 0.9-2 1-2.9 0.3-0.9-0.8-1-2.1-0.3-3l27-32c0.8-1 2.4-1 3.2 0l25.4 30.1 25.3-30.1c0.4-0.5 1-0.8 1.6-0.8 0.6 0 1.2 0.3 1.6 0.8l25.3 30.1 25.4-30.1c0.8-1 2.4-1 3.2 0l26.9 32c0.7 0.9 0.6 2.2-0.3 3-0.4 0.3-0.8 0.5-1.3 0.5z"/>
						</g>
					</g>
				</g>
				<g id="&lt;Group&gt;">
					<path id="&lt;Path&gt;" class="s6" d="m-118.4 721.8l-5.2-2c90.3-236 257-441.6 469.2-578.8 212.2-137.2 468-204.9 720.4-190.4l-0.3 5.6c-251.1-14.4-505.8 52.9-717.1 189.5-211.2 136.5-377.1 341.2-467 576.1z"/>
				</g>
				<g id="&lt;Group&gt;">
					<path id="&lt;Path&gt;" class="s6" d="m1683.1 1644.8c-50.4 0-100.7-2.8-150.5-8.4l0.6-5.5c262.1 29.4 536.1-19.7 771.6-138.5 235.5-118.8 437.9-310 569.9-538.3l4.8 2.8c-132.6 229.2-335.8 421.2-572.2 540.4-191.6 96.7-408.7 147.5-624.2 147.5z"/>
				</g>
				<g id="&lt;Group&gt;">
					<path id="&lt;Path&gt;" class="s6" d="m-205.8 548.5l-4.9-2.8c219-386.7 664.4-635.1 1108.5-618l-0.2 5.6c-441.8-17-885.5 230.2-1103.4 615.2z"/>
				</g>
				<g id="&lt;Group&gt;">
					<path id="&lt;Path&gt;" class="s6" d="m2137.8 1732.8l-1.6-5.3c363.4-108 664.9-413.4 768.1-778.2l5.4 1.5c-103.8 366.6-406.7 673.5-771.9 782z"/>
				</g>
				<g id="&lt;Group&gt;">
					<path id="&lt;Path&gt;" class="s5" d="m-89.1 459.6l-5.4-1.4c36.2-133.9 110-258.3 213.5-359.7 103.5-101.4 229.3-172.7 363.8-206.2l1.4 5.4c-270.2 67.3-500.6 293.1-573.3 561.9z"/>
				</g>
				<g id="&lt;Group&gt;">
					<path id="&lt;Path&gt;" class="s5" d="m2492.9 1665.3l-2.1-5.1c224.7-91.4 383.4-333.7 377.5-576.2l5.6-0.1c2.9 119.1-33.5 242.8-102.6 348.3-69.1 105.4-168 188.2-278.4 233.1z"/>
				</g>
				<g id="&lt;Group&gt;">
					<g id="&lt;Group&gt;">
						<g id="&lt;Group&gt;">
							<path id="&lt;Path&gt;" class="s5" d="m20.8 694.9c0 2.4-2 4.4-4.4 4.4-2.4 0-4.3-2-4.3-4.4 0-2.4 1.9-4.3 4.3-4.3 2.4 0 4.4 1.9 4.4 4.3z"/>
						</g>
					</g>
					<g id="&lt;Group&gt;">
						<g id="&lt;Group&gt;">
							<path id="&lt;Path&gt;" class="s5" d="m105 391.3c0 2.4-2 4.3-4.4 4.3-2.3 0-4.3-1.9-4.3-4.3 0-2.4 2-4.3 4.3-4.3 2.4 0 4.4 1.9 4.4 4.3z"/>
						</g>
					</g>
					<g id="&lt;Group&gt;">
						<g id="&lt;Group&gt;">
							<path id="&lt;Path&gt;" class="s5" d="m570.2 108.4c0 2.4-1.9 4.3-4.3 4.3-2.4 0-4.4-1.9-4.4-4.3 0-2.4 2-4.4 4.4-4.4 2.4 0 4.3 2 4.3 4.4z"/>
						</g>
					</g>
					<g id="&lt;Group&gt;">
						<g id="&lt;Group&gt;">
							<path id="&lt;Path&gt;" class="s5" d="m798.9 273.4c0 2.4-2 4.3-4.4 4.3-2.3 0-4.3-1.9-4.3-4.3 0-2.4 2-4.3 4.3-4.3 2.4 0 4.4 1.9 4.4 4.3z"/>
						</g>
					</g>
					<g id="&lt;Group&gt;">
						<g id="&lt;Group&gt;">
							<path id="&lt;Path&gt;" class="s5" d="m1081.4 113.8c0 2.4-1.9 4.4-4.3 4.4-2.4 0-4.3-2-4.3-4.4 0-2.4 1.9-4.3 4.3-4.3 2.4 0 4.3 1.9 4.3 4.3z"/>
						</g>
					</g>
					<g id="&lt;Group&gt;">
						<g id="&lt;Group&gt;">
							<path id="&lt;Path&gt;" class="s5" d="m1324.9-10.9c0 2.4-2 4.3-4.3 4.3-2.4 0-4.4-1.9-4.4-4.3 0-2.4 2-4.3 4.4-4.3 2.3 0 4.3 1.9 4.3 4.3z"/>
						</g>
					</g>
					<g id="&lt;Group&gt;">
						<g id="&lt;Group&gt;">
							<path id="&lt;Path&gt;" class="s5" d="m1662.2 113.7c0 2.4-2 4.3-4.4 4.3-2.3 0-4.3-1.9-4.3-4.3 0-2.4 2-4.3 4.3-4.3 2.4 0 4.4 1.9 4.4 4.3z"/>
						</g>
					</g>
					<g id="&lt;Group&gt;">
						<g id="&lt;Group&gt;">
							<path id="&lt;Path&gt;" class="s5" d="m1440 1584.8c0 2.3-1.9 4.3-4.3 4.3-2.4 0-4.3-2-4.3-4.3 0-2.4 1.9-4.4 4.3-4.4 2.4 0 4.3 2 4.3 4.4z"/>
						</g>
					</g>
					<g id="&lt;Group&gt;">
						<g id="&lt;Group&gt;">
							<path id="&lt;Path&gt;" class="s5" d="m1945.5 1359.6c0 2.4-2 4.3-4.3 4.3-2.4 0-4.4-1.9-4.4-4.3 0-2.4 2-4.4 4.4-4.4 2.3 0 4.3 2 4.3 4.4z"/>
						</g>
					</g>
					<g id="&lt;Group&gt;">
						<g id="&lt;Group&gt;">
							<path id="&lt;Path&gt;" class="s5" d="m1946.1 1522.9c0 2.4-1.9 4.3-4.3 4.3-2.4 0-4.4-1.9-4.4-4.3 0-2.4 2-4.3 4.4-4.3 2.4 0 4.3 1.9 4.3 4.3z"/>
						</g>
					</g>
					<g id="&lt;Group&gt;">
						<g id="&lt;Group&gt;">
							<path id="&lt;Path&gt;" class="s5" d="m2334.6 1446.2c0 2.4-1.9 4.3-4.3 4.3-2.4 0-4.3-1.9-4.3-4.3 0-2.4 1.9-4.4 4.3-4.4 2.4 0 4.3 2 4.3 4.4z"/>
						</g>
					</g>
					<g id="&lt;Group&gt;">
						<g id="&lt;Group&gt;">
							<path id="&lt;Path&gt;" class="s5" d="m2264.7 1153.9c0 2.4-1.9 4.3-4.3 4.3-2.4 0-4.3-1.9-4.3-4.3 0-2.4 1.9-4.4 4.3-4.4 2.4 0 4.3 2 4.3 4.4z"/>
						</g>
					</g>
					<g id="&lt;Group&gt;">
						<g id="&lt;Group&gt;">
							<path id="&lt;Path&gt;" class="s5" d="m2436.1 849.8c0 2.4-2 4.3-4.4 4.3-2.3 0-4.3-1.9-4.3-4.3 0-2.4 2-4.3 4.3-4.3 2.4 0 4.4 1.9 4.4 4.3z"/>
						</g>
					</g>
					<g id="&lt;Group&gt;">
						<g id="&lt;Group&gt;">
							<path id="&lt;Path&gt;" class="s5" d="m2693.2 1125c0 2.4-2 4.3-4.4 4.3-2.4 0-4.3-1.9-4.3-4.3 0-2.4 1.9-4.3 4.3-4.3 2.4 0 4.4 1.9 4.4 4.3z"/>
						</g>
					</g>
					<g id="&lt;Group&gt;">
						<g id="&lt;Group&gt;">
							<path id="&lt;Path&gt;" class="s5" d="m2855.5 837.4c0 2.4-1.9 4.3-4.3 4.3-2.4 0-4.3-1.9-4.3-4.3 0-2.4 1.9-4.3 4.3-4.3 2.4 0 4.3 1.9 4.3 4.3z"/>
						</g>
					</g>
				</g>
				<g id="&lt;Group&gt;">
					<g id="&lt;Group&gt;">
						<g id="&lt;Group&gt;">
							<g id="&lt;Group&gt;">
								<path id="&lt;Path&gt;" class="s5" d="m350.6 579.8c-0.6 0-1.2-0.3-1.7-0.7l-41.2-41.2c-0.9-1-0.9-2.5 0-3.4 1-1 2.5-1 3.4 0l41.2 41.2c1 0.9 1 2.4 0 3.4-0.5 0.4-1.1 0.7-1.7 0.7z"/>
							</g>
							<g id="&lt;Group&gt;">
								<path id="&lt;Path&gt;" class="s5" d="m309.4 579.8c-0.6 0-1.2-0.3-1.7-0.7-0.9-1-0.9-2.5 0-3.4l41.2-41.2c1-1 2.5-1 3.4 0 1 0.9 1 2.4 0 3.4l-41.2 41.2c-0.5 0.4-1.1 0.7-1.7 0.7z"/>
							</g>
						</g>
					</g>
					<g id="&lt;Group&gt;">
						<g id="&lt;Group&gt;">
							<g id="&lt;Group&gt;">
								<path id="&lt;Path&gt;" class="s5" d="m2427.5 975.8c-0.6 0-1.2-0.3-1.7-0.7l-41.2-41.2c-0.9-1-0.9-2.5 0-3.4 1-1 2.5-1 3.4 0l41.2 41.2c1 0.9 1 2.4 0 3.4-0.4 0.4-1 0.7-1.7 0.7z"/>
							</g>
							<g id="&lt;Group&gt;">
								<path id="&lt;Path&gt;" class="s5" d="m2386.3 975.8c-0.6 0-1.2-0.3-1.7-0.7-0.9-1-0.9-2.5 0-3.4l41.2-41.2c1-1 2.5-1 3.4 0 1 0.9 1 2.4 0 3.4l-41.2 41.2c-0.4 0.4-1.1 0.7-1.7 0.7z"/>
							</g>
						</g>
					</g>
				</g>
				<g id="&lt;Group&gt;" style="mix-blend-mode: overlay">
					<g id="&lt;Group&gt;">
					</g>
					<g id="Offset Group 13 ">
						<g id="&lt;Group&gt;">
							<path id="&lt;Path&gt;" class="s7" d="m-202.6 1251.9l-5-2.5c189.1-376.2 469.8-704.8 811.9-950.2 342-245.5 743.2-406.3 1160.1-464.9l0.7 5.5c-416 58.5-816.3 218.9-1157.6 463.9-341.3 244.9-621.4 572.8-810.1 948.2z"/>
						</g>
						<g id="&lt;Group&gt;">
							<path id="&lt;Path&gt;" class="s7" d="m-247.4 1229.4l-4.9-2.5c192.7-383.4 478.8-718.3 827.4-968.5 348.6-250.1 757.4-414 1182.3-473.8l0.8 5.5c-424 59.7-832 223.2-1179.9 472.9-347.9 249.6-633.4 583.8-825.7 966.4z"/>
						</g>
						<g id="&lt;Group&gt;">
						</g>
						<g id="&lt;Group&gt;">
						</g>
					</g>
				</g>
				<g id="&lt;Group&gt;" style="mix-blend-mode: overlay">
					<g id="&lt;Group&gt;">
					</g>
					<g id="Offset Group 12 ">
						<g id="&lt;Group&gt;">
							<path id="&lt;Path&gt;" class="s7" d="m3066.5 324.2l4.9 2.5c-189 376.1-469.8 704.7-811.8 950.2-342.1 245.4-743.2 406.2-1160.1 464.9l-0.8-5.5c416-58.6 816.3-219 1157.6-463.9 341.4-245 621.5-572.9 810.2-948.2z"/>
						</g>
						<g id="&lt;Group&gt;">
							<path id="&lt;Path&gt;" class="s7" d="m3111.2 346.7l5 2.5c-192.7 383.4-478.8 718.2-827.4 968.4-348.6 250.2-757.4 414-1182.3 473.8l-0.8-5.5c424-59.7 832-223.2 1179.9-472.8 347.8-249.7 633.3-583.8 825.6-966.4z"/>
						</g>
						<g id="&lt;Group&gt;">
						</g>
						<g id="&lt;Group&gt;">
						</g>
					</g>
				</g>
			</g>
			<g id="&lt;Group&gt;">
				<path id="&lt;Path&gt;" class="s6" d="m369.4 207.9c-2.4 0-4.4-2-4.4-4.5 0-2.4 2-4.4 4.4-4.4 2.5 0 4.5 2 4.5 4.4 0 2.5-2 4.5-4.5 4.5z"/>
				<path id="&lt;Path&gt;" class="s6" d="m412.8 207.9c-2.5 0-4.5-2-4.5-4.5 0-2.4 2-4.4 4.5-4.4 2.5 0 4.4 2 4.4 4.4 0 2.5-1.9 4.5-4.4 4.5z"/>
				<path id="&lt;Path&gt;" class="s6" d="m456.1 207.9c-2.4 0-4.4-2-4.4-4.5 0-2.4 2-4.4 4.4-4.4 2.5 0 4.5 2 4.5 4.4 0 2.5-2 4.5-4.5 4.5z"/>
				<path id="&lt;Path&gt;" class="s6" d="m499.5 207.9c-2.5 0-4.5-2-4.5-4.5 0-2.4 2-4.4 4.5-4.4 2.4 0 4.4 2 4.4 4.4 0 2.5-2 4.5-4.4 4.5z"/>
				<path id="&lt;Path&gt;" class="s6" d="m542.8 207.9c-2.4 0-4.4-2-4.4-4.5 0-2.4 2-4.4 4.4-4.4 2.5 0 4.5 2 4.5 4.4 0 2.5-2 4.5-4.5 4.5z"/>
				<path id="&lt;Path&gt;" class="s6" d="m586.2 207.9c-2.5 0-4.5-2-4.5-4.5 0-2.4 2-4.4 4.5-4.4 2.4 0 4.4 2 4.4 4.4 0 2.5-2 4.5-4.4 4.5z"/>
				<path id="&lt;Path&gt;" class="s6" d="m629.5 207.9c-2.4 0-4.4-2-4.4-4.5 0-2.4 2-4.4 4.4-4.4 2.5 0 4.5 2 4.5 4.4 0 2.5-2 4.5-4.5 4.5z"/>
				<path id="&lt;Path&gt;" class="s6" d="m672.9 207.9c-2.5 0-4.5-2-4.5-4.5 0-2.4 2-4.4 4.5-4.4 2.4 0 4.4 2 4.4 4.4 0 2.5-2 4.5-4.4 4.5z"/>
				<path id="&lt;Path&gt;" class="s6" d="m716.2 207.9c-2.4 0-4.4-2-4.4-4.5 0-2.4 2-4.4 4.4-4.4 2.5 0 4.5 2 4.5 4.4 0 2.5-2 4.5-4.5 4.5z"/>
				<path id="&lt;Path&gt;" class="s6" d="m369.4 251.2c-2.4 0-4.4-1.9-4.4-4.4 0-2.5 2-4.5 4.4-4.5 2.5 0 4.5 2 4.5 4.5 0 2.5-2 4.4-4.5 4.4z"/>
				<path id="&lt;Path&gt;" class="s6" d="m412.8 251.2c-2.5 0-4.5-1.9-4.5-4.4 0-2.5 2-4.5 4.5-4.5 2.5 0 4.4 2 4.4 4.5 0 2.5-1.9 4.4-4.4 4.4z"/>
				<path id="&lt;Path&gt;" class="s6" d="m456.1 251.2c-2.4 0-4.4-1.9-4.4-4.4 0-2.5 2-4.5 4.4-4.5 2.5 0 4.5 2 4.5 4.5 0 2.5-2 4.4-4.5 4.4z"/>
				<path id="&lt;Path&gt;" class="s6" d="m499.5 251.2c-2.5 0-4.5-1.9-4.5-4.4 0-2.5 2-4.5 4.5-4.5 2.4 0 4.4 2 4.4 4.5 0 2.5-2 4.4-4.4 4.4z"/>
				<path id="&lt;Path&gt;" class="s6" d="m542.8 251.2c-2.4 0-4.4-1.9-4.4-4.4 0-2.5 2-4.5 4.4-4.5 2.5 0 4.5 2 4.5 4.5 0 2.5-2 4.4-4.5 4.4z"/>
				<path id="&lt;Path&gt;" class="s6" d="m586.2 251.2c-2.5 0-4.5-1.9-4.5-4.4 0-2.5 2-4.5 4.5-4.5 2.4 0 4.4 2 4.4 4.5 0 2.5-2 4.4-4.4 4.4z"/>
				<path id="&lt;Path&gt;" class="s6" d="m629.5 251.2c-2.4 0-4.4-1.9-4.4-4.4 0-2.5 2-4.5 4.4-4.5 2.5 0 4.5 2 4.5 4.5 0 2.5-2 4.4-4.5 4.4z"/>
				<path id="&lt;Path&gt;" class="s6" d="m672.9 251.2c-2.5 0-4.5-1.9-4.5-4.4 0-2.5 2-4.5 4.5-4.5 2.4 0 4.4 2 4.4 4.5 0 2.5-2 4.4-4.4 4.4z"/>
				<path id="&lt;Path&gt;" class="s6" d="m716.2 251.2c-2.4 0-4.4-1.9-4.4-4.4 0-2.5 2-4.5 4.4-4.5 2.5 0 4.5 2 4.5 4.5 0 2.5-2 4.4-4.5 4.4z"/>
				<path id="&lt;Path&gt;" class="s6" d="m369.4 294.6c-2.4 0-4.4-2-4.4-4.5 0-2.4 2-4.4 4.4-4.4 2.5 0 4.5 2 4.5 4.4 0 2.5-2 4.5-4.5 4.5z"/>
				<path id="&lt;Path&gt;" class="s6" d="m412.8 294.6c-2.5 0-4.5-2-4.5-4.5 0-2.4 2-4.4 4.5-4.4 2.5 0 4.4 2 4.4 4.4 0 2.5-1.9 4.5-4.4 4.5z"/>
				<path id="&lt;Path&gt;" class="s6" d="m456.1 294.6c-2.4 0-4.4-2-4.4-4.5 0-2.4 2-4.4 4.4-4.4 2.5 0 4.5 2 4.5 4.4 0 2.5-2 4.5-4.5 4.5z"/>
				<path id="&lt;Path&gt;" class="s6" d="m499.5 294.6c-2.5 0-4.5-2-4.5-4.5 0-2.4 2-4.4 4.5-4.4 2.4 0 4.4 2 4.4 4.4 0 2.5-2 4.5-4.4 4.5z"/>
				<path id="&lt;Path&gt;" class="s6" d="m542.8 294.6c-2.4 0-4.4-2-4.4-4.5 0-2.4 2-4.4 4.4-4.4 2.5 0 4.5 2 4.5 4.4 0 2.5-2 4.5-4.5 4.5z"/>
				<path id="&lt;Path&gt;" class="s6" d="m586.2 294.6c-2.5 0-4.5-2-4.5-4.5 0-2.4 2-4.4 4.5-4.4 2.4 0 4.4 2 4.4 4.4 0 2.5-2 4.5-4.4 4.5z"/>
				<path id="&lt;Path&gt;" class="s6" d="m629.5 294.6c-2.4 0-4.4-2-4.4-4.5 0-2.4 2-4.4 4.4-4.4 2.5 0 4.5 2 4.5 4.4 0 2.5-2 4.5-4.5 4.5z"/>
				<path id="&lt;Path&gt;" class="s6" d="m672.9 294.6c-2.5 0-4.5-2-4.5-4.5 0-2.4 2-4.4 4.5-4.4 2.4 0 4.4 2 4.4 4.4 0 2.5-2 4.5-4.4 4.5z"/>
				<path id="&lt;Path&gt;" class="s6" d="m716.2 294.6c-2.4 0-4.4-2-4.4-4.5 0-2.4 2-4.4 4.4-4.4 2.5 0 4.5 2 4.5 4.4 0 2.5-2 4.5-4.5 4.5z"/>
				<path id="&lt;Path&gt;" class="s6" d="m369.4 337.9c-2.4 0-4.4-2-4.4-4.4 0-2.5 2-4.5 4.4-4.5 2.5 0 4.5 2 4.5 4.5 0 2.4-2 4.4-4.5 4.4z"/>
				<path id="&lt;Path&gt;" class="s6" d="m412.8 337.9c-2.5 0-4.5-2-4.5-4.4 0-2.5 2-4.5 4.5-4.5 2.5 0 4.4 2 4.4 4.5 0 2.4-1.9 4.4-4.4 4.4z"/>
				<path id="&lt;Path&gt;" class="s6" d="m456.1 337.9c-2.4 0-4.4-2-4.4-4.4 0-2.5 2-4.5 4.4-4.5 2.5 0 4.5 2 4.5 4.5 0 2.4-2 4.4-4.5 4.4z"/>
				<path id="&lt;Path&gt;" class="s6" d="m499.5 337.9c-2.5 0-4.5-2-4.5-4.4 0-2.5 2-4.5 4.5-4.5 2.4 0 4.4 2 4.4 4.5 0 2.4-2 4.4-4.4 4.4z"/>
				<path id="&lt;Path&gt;" class="s6" d="m542.8 337.9c-2.4 0-4.4-2-4.4-4.4 0-2.5 2-4.5 4.4-4.5 2.5 0 4.5 2 4.5 4.5 0 2.4-2 4.4-4.5 4.4z"/>
				<path id="&lt;Path&gt;" class="s6" d="m586.2 337.9c-2.5 0-4.5-2-4.5-4.4 0-2.5 2-4.5 4.5-4.5 2.4 0 4.4 2 4.4 4.5 0 2.4-2 4.4-4.4 4.4z"/>
				<path id="&lt;Path&gt;" class="s6" d="m629.5 337.9c-2.4 0-4.4-2-4.4-4.4 0-2.5 2-4.5 4.4-4.5 2.5 0 4.5 2 4.5 4.5 0 2.4-2 4.4-4.5 4.4z"/>
				<path id="&lt;Path&gt;" class="s6" d="m672.9 337.9c-2.5 0-4.5-2-4.5-4.4 0-2.5 2-4.5 4.5-4.5 2.4 0 4.4 2 4.4 4.5 0 2.4-2 4.4-4.4 4.4z"/>
				<path id="&lt;Path&gt;" class="s6" d="m716.2 337.9c-2.4 0-4.4-2-4.4-4.4 0-2.5 2-4.5 4.4-4.5 2.5 0 4.5 2 4.5 4.5 0 2.4-2 4.4-4.5 4.4z"/>
			</g>
			<g id="&lt;Group&gt;">
				<path id="&lt;Path&gt;" class="s6" d="m2386.4 1377c-8.8 0-17.6-5.9-25.5-17.1-7.1-10.1-14.9-15.5-22.4-15.5-7.5 0-15.3 5.4-22.4 15.5-7.9 11.2-16.7 17.1-25.5 17.1-8.7 0-17.5-5.9-25.4-17.1-7.1-10.1-14.9-15.5-22.4-15.5-7.5 0-15.3 5.4-22.4 15.5-7.9 11.2-16.7 17.1-25.5 17.1-8.8 0-17.5-5.9-25.4-17.1-7.2-10.1-14.9-15.5-22.4-15.5-7.6 0-15.3 5.4-22.5 15.5-0.6 0.9-1.7 1.1-2.5 0.5-0.9-0.6-1.1-1.7-0.5-2.6 7.9-11.2 16.7-17.1 25.5-17.1 8.7 0 17.5 5.9 25.4 17.1 5 7.1 12.9 15.6 22.4 15.6 7.5 0 15.3-5.4 22.4-15.6 7.9-11.2 16.7-17.1 25.5-17.1 8.7 0 17.5 5.9 25.4 17.1 5 7.1 12.9 15.6 22.4 15.6 7.6 0 15.3-5.4 22.5-15.6 7.9-11.2 16.7-17.1 25.4-17.1 8.8 0 17.6 5.9 25.4 17.1 7.2 10.2 15 15.6 22.5 15.6 9.5 0 17.4-8.5 22.4-15.6 0.6-0.8 1.7-1 2.6-0.4 0.8 0.6 1 1.7 0.4 2.5-7.9 11.2-16.7 17.1-25.4 17.1z"/>
			</g>
			<g id="&lt;Group&gt;">
				<path id="&lt;Compound Path&gt;" fill-rule="evenodd" class="s6" d="m2537 1112.3c-40.9 0-74.2-33.2-74.2-74.1 0-40.9 33.3-74.2 74.2-74.2 40.9 0 74.2 33.3 74.2 74.2 0 40.9-33.3 74.1-74.2 74.1zm0-142.8c-37.9 0-68.7 30.8-68.7 68.7 0 37.8 30.8 68.6 68.7 68.6 37.8 0 68.6-30.8 68.6-68.6 0-37.9-30.8-68.7-68.6-68.7z"/>
			</g>
			<g id="&lt;Group&gt;">
				<path id="&lt;Compound Path&gt;" fill-rule="evenodd" class="s6" d="m390.2 788.1c-35.2 0-63.9-28.7-63.9-63.9 0-35.1 28.7-63.8 63.9-63.8 35.2 0 63.8 28.7 63.8 63.8 0 35.2-28.6 63.9-63.8 63.9zm0-122.1c-32.2 0-58.3 26.1-58.3 58.2 0 32.2 26.1 58.3 58.3 58.3 32.1 0 58.2-26.1 58.2-58.3 0-32.1-26.1-58.2-58.2-58.2z"/>
			</g>
			<g id="&lt;Group&gt;">
			</g>
			<g id="&lt;Group&gt;">
				<path id="&lt;Compound Path&gt;" fill-rule="evenodd" class="s6" d="m1759.5 1378.7c-15.2 0-27.6-12.4-27.6-27.5 0-15.2 12.4-27.6 27.6-27.6 15.2 0 27.5 12.4 27.5 27.6 0 15.1-12.3 27.5-27.5 27.5zm0-49.5c-12.1 0-22 9.8-22 22 0 12.1 9.9 21.9 22 21.9 12.1 0 21.9-9.8 21.9-21.9 0-12.2-9.8-22-21.9-22z"/>
			</g>
		</g>
	</g>
</svg>