<svg version="1.2" xmlns="http://www.w3.org/2000/svg" viewBox="0 0 720 1280" width="720" height="1280">
	<title>fundo-calc-descontoMOBILE</title>
	<defs>
		<linearGradient id="g1" x1="211.9" y1="579.9" x2="-54.4" y2="177.9" gradientUnits="userSpaceOnUse">
			<stop offset="0" stop-color="#0c1a3b"/>
			<stop offset="1" stop-color="#000000"/>
		</linearGradient>
		<linearGradient id="g2" x1="158.9" y1="464.1" x2="-35.6" y2="59.5" gradientUnits="userSpaceOnUse">
			<stop offset="0" stop-color="#0c1a3b"/>
			<stop offset="1" stop-color="#000000"/>
		</linearGradient>
		<linearGradient id="g3" x1="452.8" y1="641.4" x2="752.4" y2="1093.5" gradientUnits="userSpaceOnUse">
			<stop offset="0" stop-color="#0c1a3b"/>
			<stop offset="1" stop-color="#000000"/>
		</linearGradient>
		<linearGradient id="g4" x1="511.4" y1="771.6" x2="730.2" y2="1226.7" gradientUnits="userSpaceOnUse">
			<stop offset="0" stop-color="#0c1a3b"/>
			<stop offset="1" stop-color="#000000"/>
		</linearGradient>
	</defs>
	<style>
		.s0 { fill: #000c2e } 
		.s1 { mix-blend-mode: screen;fill: url(#g1) } 
		.s2 { mix-blend-mode: screen;fill: url(#g2) } 
		.s3 { mix-blend-mode: screen;fill: url(#g3) } 
		.s4 { mix-blend-mode: screen;fill: url(#g4) } 
		.s5 { fill: #ffffff } 
		.s6 { fill: #3377ab } 
		.s7 { fill: #ffe6aa } 
		.s8 { opacity: .2;fill: #3377ab } 
	</style>
	<g id="_Artboards_">
	</g>
	<g id="Layer 1">
		<g id="&lt;Group&gt;">
			<path id="&lt;Path&gt;" class="s0" d="m-986-155h2806.2v1603.6h-2806.2z"/>
			<g id="&lt;Clip Group&gt;">
				<g id="&lt;Group&gt;">
					<path id="&lt;Path&gt;" class="s1" d="m600.1-4.6q-252.4-12.4-504.8-24.8c-30-1.4-62-2.5-88 12.6-31.4 18.3-46.1 55.4-55.6 90.6-24.3 90.3-28.3 186.1-11.6 278.2 2.2 12.1 4.9 24.6 11.8 34.9 38.3 57.9 66.7-26 81.8-48.7 30.1-45.3 70.1-86.4 109.9-123.1 81.1-74.8 176.4-134 279.4-173.3 50.9-19.4 121.8-49.1 177.1-46.4z"/>
					<path id="&lt;Path&gt;" class="s2" d="m600.1 2.9q-248.4-46.8-496.7-93.6c-29.6-5.6-61.1-11-88.9 0.4-33.6 13.8-53.3 48.6-67.4 82.1-36.4 86.2-53.5 180.5-49.5 274 0.5 12.4 1.4 25.1 6.8 36.2 30 62.6 69.7-16.6 87.7-37 36-40.8 81.2-76 125.7-107 90.5-62.9 193.1-108.5 300.5-133.4 53.1-12.3 127.3-32 181.8-21.7z"/>
				</g>
				<g id="&lt;Group&gt;">
					<path id="&lt;Path&gt;" class="s3" d="m16.1 1298.7q284 14 567.9 27.9c33.8 1.7 69.7 2.9 98.9-14.1 35.4-20.6 51.9-62.4 62.6-101.9 27.3-101.6 31.7-209.3 13-312.9-2.5-13.7-5.5-27.7-13.2-39.3-43.1-65.1-75.1 29.2-92.1 54.7-33.8 51-78.8 97.2-123.6 138.6-91.1 84-198.4 150.6-314.3 194.9-57.2 21.8-136.9 55.2-199.2 52.1z"/>
					<path id="&lt;Path&gt;" class="s4" d="m15.2 1290.4q279.3 52.6 558.7 105.2c33.2 6.3 68.6 12.4 99.9-0.5 37.8-15.5 60-54.6 75.9-92.3 40.9-97 60.1-203 55.7-308.2-0.6-13.9-1.7-28.2-7.7-40.7-33.8-70.4-78.4 18.6-98.7 41.6-40.5 45.9-91.3 85.5-141.4 120.3-101.8 70.8-217.2 122.1-338 150.1-59.6 13.9-143.2 36-204.4 24.5z"/>
				</g>
				<g id="&lt;Group&gt;">
					<g id="&lt;Group&gt;">
						<g id="&lt;Group&gt;">
							<path id="&lt;Path&gt;" class="s5" d="m131.4 1127.8c-0.3 0-0.5-0.1-0.7-0.3l-10.9-12.9-10.8 12.9c-0.2 0.2-0.4 0.3-0.7 0.3-0.2 0-0.5-0.1-0.7-0.3l-10.8-12.9-10.8 12.9c-0.3 0.4-1 0.4-1.4 0l-11.5-13.7c-0.3-0.4-0.2-0.9 0.1-1.3 0.4-0.3 1-0.2 1.3 0.2l10.8 12.8 10.8-12.8c0.4-0.5 1.1-0.5 1.4 0l10.8 12.8 10.9-12.8c0.3-0.5 1-0.5 1.3 0l10.9 12.8 10.8-12.8c0.3-0.4 0.9-0.5 1.3-0.2 0.3 0.4 0.4 0.9 0.1 1.3l-11.5 13.7c-0.2 0.2-0.5 0.3-0.7 0.3z"/>
						</g>
					</g>
				</g>
				<g id="&lt;Group&gt;">
					<g id="&lt;Group&gt;">
						<g id="&lt;Group&gt;">
							<path id="&lt;Path&gt;" class="s5" d="m665.7 112.4c-0.3 0-0.6-0.1-0.8-0.3l-12.1-14.5-12.2 14.5c-0.4 0.4-1.2 0.4-1.6 0l-12.1-14.5-12.2 14.5c-0.4 0.4-1.2 0.4-1.6 0l-12.1-14.5-12.2 14.5c-0.4 0.4-1 0.4-1.5 0.1-0.4-0.4-0.4-1-0.1-1.4l13-15.4c0.4-0.5 1.1-0.5 1.5 0l12.2 14.5 12.2-14.5c0.2-0.3 0.5-0.4 0.8-0.4 0.3 0 0.5 0.1 0.7 0.4l12.2 14.5 12.2-14.5c0.4-0.5 1.1-0.5 1.5 0l13 15.4c0.3 0.4 0.3 1-0.2 1.4q-0.2 0.2-0.6 0.2z"/>
						</g>
					</g>
				</g>
				<g id="&lt;Group&gt;">
					<path id="&lt;Path&gt;" class="s6" d="m-32.8 335.4l-2.2-0.9c38.6-100.8 109.8-188.7 200.5-247.3 90.7-58.7 200-87.6 307.8-81.4l-0.1 2.4c-107.3-6.1-216.1 22.6-306.4 81-90.3 58.3-161.1 145.8-199.6 246.2z"/>
				</g>
				<g id="&lt;Group&gt;">
					<path id="&lt;Path&gt;" class="s6" d="m294.2 1273.8c-22.9 8-46.1 14.8-69.6 20.2l-0.6-2.6c123.5-28.4 240-94.4 327.8-185.8 87.9-91.3 149.2-210.3 172.7-334.8l2.7 0.5c-23.6 125-85.2 244.4-173.4 336.2-71.5 74.4-161.9 132-259.6 166.3z"/>
				</g>
				<g id="&lt;Group&gt;">
					<path id="&lt;Path&gt;" class="s6" d="m-70.1 261.3l-2.1-1.2c93.6-165.2 283.9-271.4 473.7-264.1l-0.1 2.4c-188.8-7.2-378.4 98.4-471.5 262.9z"/>
				</g>
				<g id="&lt;Group&gt;">
					<path id="&lt;Path&gt;" class="s6" d="m360.4 1295l-0.7-2.6c174.6-51.8 319.5-198.7 369.2-374l2.5 0.7c-49.8 176.2-195.4 323.8-371 375.9z"/>
				</g>
				<g id="&lt;Group&gt;">
					<path id="&lt;Path&gt;" class="s5" d="m-20.3 223.3l-2.3-0.6c15.5-57.2 47.1-110.3 91.3-153.7 44.2-43.3 98-73.8 155.5-88.1l0.5 2.3c-115.4 28.8-213.9 125.3-245 240.1z"/>
				</g>
				<g id="&lt;Group&gt;">
					<path id="&lt;Path&gt;" class="s5" d="m550.1 1292.6l-1-2.5c108-43.9 184.3-160.4 181.5-276.9l2.6-0.1c1.4 57.3-16.1 116.7-49.3 167.4-33.2 50.7-80.7 90.5-133.8 112.1z"/>
				</g>
				<g id="&lt;Group&gt;">
					<g id="&lt;Group&gt;">
						<g id="&lt;Group&gt;">
							<path id="&lt;Path&gt;" class="s5" d="m406.9 0.3c0-1.1 0.9-1.9 1.9-1.9 1.1 0 2 0.8 2 1.9 0 1.1-0.9 2-2 2-1.1 0-1.9-0.9-1.9-2z"/>
						</g>
					</g>
					<g id="&lt;Group&gt;">
						<g id="&lt;Group&gt;">
							<path id="&lt;Path&gt;" class="s5" d="m543.4 38.9c0-1.1 0.9-2 1.9-1.9 1.1 0 2 0.8 2 1.9 0 1.1-0.9 2-2 1.9-1.1 0-1.9-0.8-1.9-1.9z"/>
						</g>
					</g>
					<g id="&lt;Group&gt;">
						<g id="&lt;Group&gt;">
							<path id="&lt;Path&gt;" class="s5" d="m669.7 249c0-1.1 0.9-2 2-2 1.1 0 1.9 0.9 1.9 2 0 1-0.9 1.9-1.9 1.9-1.1 0-2-0.9-2-1.9z"/>
						</g>
					</g>
					<g id="&lt;Group&gt;">
						<g id="&lt;Group&gt;">
							<path id="&lt;Path&gt;" class="s5" d="m594.9 351.5c0-1 0.9-1.9 2-1.9 1 0 1.9 0.9 1.9 2 0 1-0.9 1.9-2 1.9-1 0-1.9-0.9-1.9-2z"/>
						</g>
					</g>
					<g id="&lt;Group&gt;">
						<g id="&lt;Group&gt;">
							<path id="&lt;Path&gt;" class="s5" d="m666.1 479.1c0-1.1 0.9-2 2-2 1.1 0 1.9 0.9 1.9 2 0 1.1-0.9 1.9-1.9 1.9-1.1 0-2-0.8-2-1.9z"/>
						</g>
					</g>
					<g id="&lt;Group&gt;">
						<g id="&lt;Group&gt;">
							<path id="&lt;Path&gt;" class="s5" d="m721.7 589c0-1.1 0.9-2 2-2 1.1 0 1.9 0.9 1.9 2 0 1.1-0.8 1.9-1.9 1.9-1.1 0-2-0.9-2-1.9z"/>
						</g>
					</g>
					<g id="&lt;Group&gt;">
						<g id="&lt;Group&gt;">
							<path id="&lt;Path&gt;" class="s5" d="m664.9 740.5c0-1.1 0.9-1.9 2-1.9 1 0 1.9 0.9 1.9 1.9 0 1.1-0.9 2-2 2-1 0-1.9-0.9-1.9-2z"/>
						</g>
					</g>
					<g id="&lt;Group&gt;">
						<g id="&lt;Group&gt;">
							<path id="&lt;Path&gt;" class="s5" d="m3.1 637.3c0.1-1.1 0.9-2 2-2 1.1 0 2 0.9 1.9 2 0 1.1-0.8 1.9-1.9 1.9-1.1 0-2-0.9-2-1.9z"/>
						</g>
					</g>
					<g id="&lt;Group&gt;">
						<g id="&lt;Group&gt;">
						</g>
					</g>
					<g id="&lt;Group&gt;">
						<g id="&lt;Group&gt;">
						</g>
					</g>
					<g id="&lt;Group&gt;">
						<g id="&lt;Group&gt;">
							<path id="&lt;Path&gt;" class="s5" d="m63.5 1040.3c0.1-1.1 0.9-1.9 2-1.9 1.1 0 2 0.8 1.9 1.9 0 1.1-0.8 2-1.9 2-1.1 0-2-0.9-2-2z"/>
						</g>
					</g>
					<g id="&lt;Group&gt;">
						<g id="&lt;Group&gt;">
						</g>
					</g>
					<g id="&lt;Group&gt;">
						<g id="&lt;Group&gt;">
						</g>
					</g>
					<g id="&lt;Group&gt;">
						<g id="&lt;Group&gt;">
							<path id="&lt;Path&gt;" class="s5" d="m207.3 1202.4c0.1-1.1 0.9-1.9 2-1.9 1.1 0 2 0.9 1.9 1.9 0 1.1-0.8 2-1.9 2-1.1 0-2-0.9-2-2z"/>
						</g>
					</g>
					<g id="&lt;Group&gt;">
						<g id="&lt;Group&gt;">
							<path id="&lt;Path&gt;" class="s5" d="m336.4 1276.2c0.1-1.1 0.9-2 2-2 1.1 0 2 0.9 1.9 2 0 1-0.8 1.9-1.9 1.9-1.1 0-2-0.9-2-1.9z"/>
						</g>
					</g>
				</g>
				<g id="&lt;Group&gt;">
					<g id="&lt;Group&gt;">
						<g id="&lt;Group&gt;">
							<g id="&lt;Group&gt;">
								<path id="&lt;Path&gt;" class="s5" d="m-119.3-140.2c-0.3-0.4-0.5-0.8-0.5-1.3l1.9-44.4c0.1-1 0.9-1.8 1.9-1.8 1 0.1 1.8 0.9 1.8 1.9l-1.9 44.4c-0.1 1-0.9 1.8-1.9 1.8-0.5-0.1-1-0.3-1.3-0.6z"/>
							</g>
							<g id="&lt;Group&gt;">
								<path id="&lt;Path&gt;" class="s5" d="m-140.5-163.4c-0.3-0.3-0.5-0.8-0.5-1.3 0-1 0.9-1.8 1.9-1.7l44.4 1.9c1 0 1.8 0.9 1.7 1.9 0 1-0.9 1.8-1.9 1.7l-44.4-1.9c-0.5 0-0.9-0.2-1.2-0.6z"/>
							</g>
						</g>
					</g>
					<g id="&lt;Group&gt;">
						<g id="&lt;Group&gt;">
							<g id="&lt;Group&gt;">
								<path id="&lt;Path&gt;" class="s5" d="m728.7 1229.7c-0.3-0.3-0.5-0.8-0.5-1.3l1.9-44.3c0.1-1 0.9-1.8 1.9-1.8 1 0.1 1.8 0.9 1.8 1.9l-1.9 44.4c-0.1 1-0.9 1.8-1.9 1.7-0.5 0-1-0.2-1.3-0.6z"/>
							</g>
							<g id="&lt;Group&gt;">
								<path id="&lt;Path&gt;" class="s5" d="m707.5 1206.6c-0.4-0.3-0.5-0.8-0.5-1.3 0-1 0.9-1.8 1.9-1.8l44.4 1.9c1 0.1 1.7 0.9 1.7 1.9 0 1.1-0.9 1.8-1.9 1.8l-44.4-1.9c-0.5 0-0.9-0.2-1.2-0.6z"/>
							</g>
						</g>
					</g>
				</g>
				<g id="&lt;Group&gt;" style="mix-blend-mode: overlay">
					<g id="&lt;Group&gt;">
					</g>
					<g id="Offset Group 13 ">
						<g id="&lt;Group&gt;">
							<path id="&lt;Path&gt;" class="s7" d="m-68.7 561.9l-2.2-1.1c80.8-160.7 200.8-301.1 346.9-406 146.2-104.9 317.6-173.6 495.8-198.7l0.3 2.4c-177.8 25-348.8 93.5-494.7 198.2-145.8 104.7-265.5 244.8-346.1 405.2z"/>
						</g>
						<g id="&lt;Group&gt;">
							<path id="&lt;Path&gt;" class="s7" d="m-87.9 552.3l-2.1-1.1c82.3-163.8 204.6-306.9 353.6-413.8 148.9-106.9 323.6-176.9 505.2-202.5l0.3 2.4c-181.2 25.5-355.5 95.3-504.2 202-148.6 106.7-270.6 249.5-352.8 413z"/>
						</g>
						<g id="&lt;Group&gt;">
						</g>
						<g id="&lt;Group&gt;">
						</g>
					</g>
				</g>
				<g id="&lt;Group&gt;" style="mix-blend-mode: overlay">
					<g id="&lt;Group&gt;">
					</g>
					<g id="Offset Group 12 ">
						<g id="&lt;Group&gt;">
							<path id="&lt;Path&gt;" class="s7" d="m764.8 653l2.4 1.2c-90.9 180.8-225.8 338.7-390.2 456.7-164.4 117.9-357.2 195.2-557.6 223.4l-0.4-2.6c200-28.2 392.4-105.3 556.4-223 164.1-117.7 298.7-275.3 389.4-455.7z"/>
						</g>
						<g id="&lt;Group&gt;">
							<path id="&lt;Path&gt;" class="s7" d="m786.3 663.8l2.4 1.2c-92.6 184.2-230.1 345.2-397.7 465.4-167.5 120.3-364 199-568.3 227.8l-0.3-2.7c203.8-28.7 399.9-107.2 567.1-227.2 167.2-120 304.4-280.6 396.8-464.5z"/>
						</g>
						<g id="&lt;Group&gt;">
						</g>
						<g id="&lt;Group&gt;">
						</g>
					</g>
				</g>
			</g>
			<g id="&lt;Group&gt;" style="opacity: .5">
				<path id="&lt;Path&gt;" class="s6" d="m43.9 166.8c-1.1 0-1.9-0.9-1.9-1.9 0-1.1 0.8-1.9 1.9-1.9 1 0 1.9 0.8 1.9 1.9 0 1-0.9 1.9-1.9 1.9z"/>
				<path id="&lt;Path&gt;" class="s6" d="m62.3 166.8c-1.1 0-1.9-0.9-1.9-1.9 0-1.1 0.8-1.9 1.9-1.9 1 0 1.9 0.8 1.9 1.9 0 1-0.9 1.9-1.9 1.9z"/>
				<path id="&lt;Path&gt;" class="s6" d="m80.7 166.8c-1.1 0-1.9-0.9-1.9-1.9 0-1.1 0.8-1.9 1.9-1.9 1 0 1.9 0.8 1.9 1.9 0 1-0.9 1.9-1.9 1.9z"/>
				<path id="&lt;Path&gt;" class="s6" d="m99.1 166.8c-1.1 0-1.9-0.9-1.9-1.9 0-1.1 0.8-1.9 1.9-1.9 1 0 1.9 0.8 1.9 1.9 0 1-0.9 1.9-1.9 1.9z"/>
				<path id="&lt;Path&gt;" class="s6" d="m117.5 166.8c-1.1 0-1.9-0.9-1.9-1.9 0-1.1 0.8-1.9 1.9-1.9 1 0 1.9 0.8 1.9 1.9 0 1-0.9 1.9-1.9 1.9z"/>
				<path id="&lt;Path&gt;" class="s6" d="m135.9 166.8c-1.1 0-1.9-0.9-1.9-1.9 0-1.1 0.8-1.9 1.9-1.9 1 0 1.9 0.8 1.9 1.9 0 1-0.9 1.9-1.9 1.9z"/>
				<path id="&lt;Path&gt;" class="s6" d="m154.3 166.8c-1.1 0-1.9-0.9-1.9-1.9 0-1.1 0.8-1.9 1.9-1.9 1 0 1.9 0.8 1.9 1.9 0 1-0.9 1.9-1.9 1.9z"/>
				<path id="&lt;Path&gt;" class="s6" d="m172.7 166.8c-1.1 0-1.9-0.9-1.9-1.9 0-1.1 0.8-1.9 1.9-1.9 1 0 1.8 0.8 1.8 1.9 0 1-0.8 1.9-1.8 1.9z"/>
				<path id="&lt;Path&gt;" class="s6" d="m191.1 166.8c-1.1 0-1.9-0.9-1.9-1.9 0-1.1 0.8-1.9 1.9-1.9 1 0 1.8 0.8 1.8 1.9 0 1-0.8 1.9-1.8 1.9z"/>
				<path id="&lt;Path&gt;" class="s6" d="m43.9 185.2c-1.1 0-1.9-0.9-1.9-1.9 0-1.1 0.8-1.9 1.9-1.9 1 0 1.9 0.8 1.9 1.9 0 1-0.9 1.9-1.9 1.9z"/>
				<path id="&lt;Path&gt;" class="s6" d="m62.3 185.2c-1.1 0-1.9-0.9-1.9-1.9 0-1.1 0.8-1.9 1.9-1.9 1 0 1.9 0.8 1.9 1.9 0 1-0.9 1.9-1.9 1.9z"/>
				<path id="&lt;Path&gt;" class="s6" d="m80.7 185.2c-1.1 0-1.9-0.9-1.9-1.9 0-1.1 0.8-1.9 1.9-1.9 1 0 1.9 0.8 1.9 1.9 0 1-0.9 1.9-1.9 1.9z"/>
				<path id="&lt;Path&gt;" class="s6" d="m99.1 185.2c-1.1 0-1.9-0.9-1.9-1.9 0-1.1 0.8-1.9 1.9-1.9 1 0 1.9 0.8 1.9 1.9 0 1-0.9 1.9-1.9 1.9z"/>
				<path id="&lt;Path&gt;" class="s6" d="m117.5 185.2c-1.1 0-1.9-0.9-1.9-1.9 0-1.1 0.8-1.9 1.9-1.9 1 0 1.9 0.8 1.9 1.9 0 1-0.9 1.9-1.9 1.9z"/>
				<path id="&lt;Path&gt;" class="s6" d="m135.9 185.2c-1.1 0-1.9-0.9-1.9-1.9 0-1.1 0.8-1.9 1.9-1.9 1 0 1.9 0.8 1.9 1.9 0 1-0.9 1.9-1.9 1.9z"/>
				<path id="&lt;Path&gt;" class="s6" d="m154.3 185.2c-1.1 0-1.9-0.9-1.9-1.9 0-1.1 0.8-1.9 1.9-1.9 1 0 1.9 0.8 1.9 1.9 0 1-0.9 1.9-1.9 1.9z"/>
				<path id="&lt;Path&gt;" class="s6" d="m172.7 185.2c-1.1 0-1.9-0.9-1.9-1.9 0-1.1 0.8-1.9 1.9-1.9 1 0 1.8 0.8 1.8 1.9 0 1-0.8 1.9-1.8 1.9z"/>
				<path id="&lt;Path&gt;" class="s6" d="m191.1 185.2c-1.1 0-1.9-0.9-1.9-1.9 0-1.1 0.8-1.9 1.9-1.9 1 0 1.8 0.8 1.8 1.9 0 1-0.8 1.9-1.8 1.9z"/>
				<path id="&lt;Path&gt;" class="s6" d="m43.9 203.6c-1.1 0-1.9-0.9-1.9-1.9 0-1.1 0.8-1.9 1.9-1.9 1 0 1.9 0.8 1.9 1.9 0 1-0.9 1.9-1.9 1.9z"/>
				<path id="&lt;Path&gt;" class="s6" d="m62.3 203.6c-1.1 0-1.9-0.9-1.9-1.9 0-1.1 0.8-1.9 1.9-1.9 1 0 1.9 0.8 1.9 1.9 0 1-0.9 1.9-1.9 1.9z"/>
				<path id="&lt;Path&gt;" class="s6" d="m80.7 203.6c-1.1 0-1.9-0.9-1.9-1.9 0-1.1 0.8-1.9 1.9-1.9 1 0 1.9 0.8 1.9 1.9 0 1-0.9 1.9-1.9 1.9z"/>
				<path id="&lt;Path&gt;" class="s6" d="m99.1 203.6c-1.1 0-1.9-0.9-1.9-1.9 0-1.1 0.8-1.9 1.9-1.9 1 0 1.9 0.8 1.9 1.9 0 1-0.9 1.9-1.9 1.9z"/>
				<path id="&lt;Path&gt;" class="s6" d="m117.5 203.6c-1.1 0-1.9-0.9-1.9-1.9 0-1.1 0.8-1.9 1.9-1.9 1 0 1.9 0.8 1.9 1.9 0 1-0.9 1.9-1.9 1.9z"/>
				<path id="&lt;Path&gt;" class="s6" d="m135.9 203.6c-1.1 0-1.9-0.9-1.9-1.9 0-1.1 0.8-1.9 1.9-1.9 1 0 1.9 0.8 1.9 1.9 0 1-0.9 1.9-1.9 1.9z"/>
				<path id="&lt;Path&gt;" class="s6" d="m154.3 203.6c-1.1 0-1.9-0.9-1.9-1.9 0-1.1 0.8-1.9 1.9-1.9 1 0 1.9 0.8 1.9 1.9 0 1-0.9 1.9-1.9 1.9z"/>
				<path id="&lt;Path&gt;" class="s6" d="m172.7 203.6c-1.1 0-1.9-0.9-1.9-1.9 0-1.1 0.8-1.9 1.9-1.9 1 0 1.8 0.8 1.8 1.9 0 1-0.8 1.9-1.8 1.9z"/>
				<path id="&lt;Path&gt;" class="s6" d="m191.1 203.6c-1.1 0-1.9-0.9-1.9-1.9 0-1.1 0.8-1.9 1.9-1.9 1 0 1.8 0.8 1.8 1.9 0 1-0.8 1.9-1.8 1.9z"/>
				<path id="&lt;Path&gt;" class="s6" d="m43.9 222c-1.1 0-1.9-0.9-1.9-1.9 0-1.1 0.8-1.9 1.9-1.9 1 0 1.9 0.8 1.9 1.9 0 1-0.9 1.9-1.9 1.9z"/>
				<path id="&lt;Path&gt;" class="s6" d="m62.3 222c-1.1 0-1.9-0.9-1.9-1.9 0-1.1 0.8-1.9 1.9-1.9 1 0 1.9 0.8 1.9 1.9 0 1-0.9 1.9-1.9 1.9z"/>
				<path id="&lt;Path&gt;" class="s6" d="m80.7 222c-1.1 0-1.9-0.9-1.9-1.9 0-1.1 0.8-1.9 1.9-1.9 1 0 1.9 0.8 1.9 1.9 0 1-0.9 1.9-1.9 1.9z"/>
				<path id="&lt;Path&gt;" class="s6" d="m99.1 222c-1.1 0-1.9-0.9-1.9-1.9 0-1.1 0.8-1.9 1.9-1.9 1 0 1.9 0.8 1.9 1.9 0 1-0.9 1.9-1.9 1.9z"/>
				<path id="&lt;Path&gt;" class="s6" d="m117.5 222c-1.1 0-1.9-0.9-1.9-1.9 0-1.1 0.8-1.9 1.9-1.9 1 0 1.9 0.8 1.9 1.9 0 1-0.9 1.9-1.9 1.9z"/>
				<path id="&lt;Path&gt;" class="s6" d="m135.9 222c-1.1 0-1.9-0.9-1.9-1.9 0-1.1 0.8-1.9 1.9-1.9 1 0 1.9 0.8 1.9 1.9 0 1-0.9 1.9-1.9 1.9z"/>
				<path id="&lt;Path&gt;" class="s6" d="m154.3 222c-1.1 0-1.9-0.9-1.9-1.9 0-1.1 0.8-1.9 1.9-1.9 1 0 1.9 0.8 1.9 1.9 0 1-0.9 1.9-1.9 1.9z"/>
				<path id="&lt;Path&gt;" class="s6" d="m172.7 222c-1.1 0-1.9-0.9-1.9-1.9 0-1.1 0.8-1.9 1.9-1.9 1 0 1.8 0.8 1.8 1.9 0 1-0.8 1.9-1.8 1.9z"/>
				<path id="&lt;Path&gt;" class="s6" d="m191.1 222c-1.1 0-1.9-0.9-1.9-1.9 0-1.1 0.8-1.9 1.9-1.9 1 0 1.8 0.8 1.8 1.9 0 1-0.8 1.9-1.8 1.9z"/>
			</g>
			<g id="&lt;Group&gt;">
				<path id="&lt;Path&gt;" class="s6" d="m659.3 755.8c-4.3 0-8.6-2.9-12.5-8.4-3.5-5-7.3-7.6-11-7.6-3.7 0-7.5 2.6-11 7.6-3.9 5.5-8.2 8.4-12.5 8.4-4.3 0-8.7-2.9-12.5-8.4-3.6-5-7.4-7.6-11.1-7.6-3.7 0-7.5 2.6-11 7.6-3.9 5.5-8.2 8.4-12.5 8.4-4.3 0-8.6-2.9-12.5-8.4-3.5-5-7.3-7.6-11-7.6-3.7 0-7.5 2.6-11.1 7.6-0.2 0.5-0.8 0.5-1.2 0.3-0.4-0.3-0.5-0.9-0.2-1.3 3.8-5.5 8.2-8.4 12.5-8.4 4.3 0 8.6 2.9 12.5 8.4 2.4 3.5 6.3 7.6 11 7.6 3.7 0 7.5-2.6 11-7.6 3.9-5.5 8.2-8.4 12.5-8.4 4.3 0 8.7 2.9 12.5 8.4 2.5 3.5 6.4 7.6 11.1 7.6 3.7 0 7.5-2.6 11-7.6 3.9-5.5 8.2-8.4 12.5-8.4 4.3 0 8.6 2.9 12.5 8.4 3.5 5 7.3 7.6 11 7.6 4.7 0 8.6-4.1 11.1-7.6 0.2-0.4 0.8-0.5 1.2-0.2 0.4 0.3 0.5 0.8 0.2 1.2-3.8 5.5-8.2 8.4-12.5 8.4z"/>
			</g>
			<g id="&lt;Group&gt;">
				<path id="&lt;Compound Path&gt;" fill-rule="evenodd" class="s8" d="m658.3 288.6c-17.3 0-31.3-14-31.3-31.3 0-17.3 14-31.3 31.3-31.3 17.3 0 31.3 14 31.3 31.3 0 17.3-14 31.3-31.3 31.3zm28.9-31.3c0-16-12.9-29-28.9-29-16 0-29 13-29 29 0 16 13 28.9 29 28.9 16 0 28.9-12.9 28.9-28.9z"/>
			</g>
			<g id="&lt;Group&gt;">
				<path id="&lt;Compound Path&gt;" fill-rule="evenodd" class="s6" d="m99.5 971.3c-12 0-21.8-9.8-21.8-21.8 0-12 9.8-21.8 21.8-21.8 12 0 21.8 9.8 21.8 21.8 0 12-9.8 21.8-21.8 21.8zm19.9-21.8c0-11-8.9-19.9-19.9-19.9-11 0-19.9 8.9-19.9 19.9 0 11 8.9 19.9 19.9 19.9 11 0 19.9-8.9 19.9-19.9z"/>
			</g>
			<g id="&lt;Group&gt;">
			</g>
			<g id="&lt;Group&gt;">
				<path id="&lt;Compound Path&gt;" fill-rule="evenodd" class="s6" d="m630 1159c-10.5 0-19-8.5-19-19 0-10.5 8.5-19 19-19 10.5 0 19 8.5 19 19 0 10.5-8.5 19-19 19zm15.2-19c0-8.4-6.8-15.2-15.2-15.2-8.4 0-15.2 6.8-15.2 15.2 0 8.4 6.8 15.2 15.2 15.2 8.4 0 15.2-6.8 15.2-15.2z"/>
			</g>
		</g>
	</g>
</svg>